PathFileType	4	(X/Y/Z)	s04c0301.trc
DataRate	CameraRate	NumFrames	NumMarkers	Units	OrigDataRate	OrigDataStartFrame	OrigNumFrames
200	200	6	50	mm	200	1750	2000
Frame#	Time	racr			lacr			c7			jug			rlel			rdr			llel			ldr			s2			lic			ric			lasi			rasi			rpsi			lpsi			rgt			lgt			rth1			rth2			rth3			rth4			rlfc			rmfc			rsh1			rsh2			rsh3			rsh4			rlmal			rmmal			rcal			rtoe			rmt5			lth1			lth2			lth4			lth3			llfc			lmfc			lsh1			lsh2			lsh3			lsh4			llmal			lmmal			lcal			ltoe			lmt5			SBIKE			LBIKE			RBIKE			
		X1	Y1	Z1	X2	Y2	Z2	X3	Y3	Z3	X4	Y4	Z4	X5	Y5	Z5	X6	Y6	Z6	X7	Y7	Z7	X8	Y8	Z8	X9	Y9	Z9	X10	Y10	Z10	X11	Y11	Z11	X12	Y12	Z12	X13	Y13	Z13	X14	Y14	Z14	X15	Y15	Z15	X16	Y16	Z16	X17	Y17	Z17	X18	Y18	Z18	X19	Y19	Z19	X20	Y20	Z20	X21	Y21	Z21	X22	Y22	Z22	X23	Y23	Z23	X24	Y24	Z24	X25	Y25	Z25	X26	Y26	Z26	X27	Y27	Z27	X28	Y28	Z28	X29	Y29	Z29	X30	Y30	Z30	X31	Y31	Z31	X32	Y32	Z32	X33	Y33	Z33	X34	Y34	Z34	X35	Y35	Z35	X36	Y36	Z36	X37	Y37	Z37	X38	Y38	Z38	X39	Y39	Z39	X40	Y40	Z40	X41	Y41	Z41	X42	Y42	Z42	X43	Y43	Z43	X44	Y44	Z44	X45	Y45	Z45	X46	Y46	Z46	X47	Y47	Z47	X48	Y48	Z48	X49	Y49	Z49	X50	Y50	Z50	
1750	8.7500	655.026880	1412.992082	-120.085904	640.527945	1413.558137	-421.854580	647.870343	1471.358553	-271.658817	620.465148	1327.046859	-277.130973	570.247494	1135.409149	22.254984	698.527515	911.948665	-108.319770	570.745592	1159.723878	-559.390085	694.447465	905.096629	-481.215034	80.125064	1246.518021	-261.595011	234.642696	1254.142044	-421.157403	239.668186	1227.728577	-99.541544	267.824858	1197.480787	-380.860704	274.870413	1172.015454	-148.546877	116.619185	1283.375143	-216.518584	111.094739	1293.010741	-289.463562	177.053539	1167.770537	-94.924519	189.207077	1176.459858	-457.578497	225.056194	1013.627507	-70.108280	261.563958	934.008906	-82.593357	256.145581	849.201297	-92.041606	294.759146	942.972603	-96.966562	279.737362	704.805775	-120.745236	257.171017	687.524355	-232.583096	231.558873	584.508571	-96.243946	228.636442	494.727186	-112.885386	180.658179	423.654432	-121.247879	260.472526	489.921353	-135.655142	146.829054	275.892993	-132.232335	170.009079	281.303158	-214.388780	80.673880	276.801446	-169.666661	345.850543	129.955643	-165.189415	276.640580	139.935101	-108.991832	248.115434	1116.498746	-471.532046	329.935256	1090.710991	-483.028506	350.487740	1118.154632	-468.647012	389.058840	1025.805229	-498.521034	502.211212	913.495943	-489.950113	537.493684	885.721485	-381.405749	437.913864	819.987452	-507.049857	391.812787	750.837901	-479.489568	313.540162	708.905616	-471.640864	412.823418	736.059447	-450.559569	201.714927	619.975212	-454.216379	200.897306	627.891944	-366.137846	120.108611	642.603270	-408.893366	369.293813	471.887125	-416.691308	289.988497	478.955131	-478.023388	-185.623858	935.098956	-286.349013	-17.426424	79.335243	-485.515153	-17.422703	79.328325	-84.830660	
1751	8.7550	653.437505	1413.154655	-119.896016	638.972685	1413.758067	-421.700936	646.247396	1471.459380	-271.449107	619.029921	1327.127479	-276.926111	569.815865	1135.227719	22.252477	698.510255	911.967840	-108.277916	570.239185	1159.685443	-559.014540	694.425551	905.148124	-481.184421	78.716282	1246.096256	-261.385995	233.225503	1254.055449	-421.133518	238.324913	1227.514404	-99.546190	266.426790	1197.362422	-380.967061	273.521686	1171.831382	-148.537040	115.130073	1282.953922	-216.424015	109.640321	1292.672322	-289.338757	175.752715	1167.462616	-94.837692	187.710529	1176.365973	-457.561214	223.758178	1013.322414	-70.207102	260.255034	933.772593	-82.706339	254.736425	848.953661	-92.325811	293.517843	942.801939	-96.889659	278.673565	704.653732	-120.973834	255.873284	687.342547	-232.778138	230.676316	584.332242	-96.453781	227.754622	494.549519	-113.113171	179.753813	423.406245	-121.408943	259.492816	489.717290	-135.960382	145.831179	275.685757	-132.334385	169.083350	281.126135	-214.515839	79.681152	276.418756	-169.732814	345.256513	130.229829	-165.224680	275.977369	140.117399	-109.014586	246.736945	1116.683700	-471.558122	328.660253	1091.204691	-483.180169	349.087451	1118.720602	-468.834850	387.989787	1026.444301	-498.783240	501.639871	914.468984	-490.391535	537.137605	886.818611	-381.897277	437.605750	820.941427	-507.602501	391.798163	751.529006	-479.831623	313.698380	709.378674	-471.807145	412.902012	736.745125	-450.841917	202.140790	619.941289	-454.188044	201.299621	627.893428	-366.095368	120.626020	642.523979	-408.829963	369.835423	471.497926	-416.171569	290.463606	478.930993	-478.009581	-185.629519	935.102971	-286.350030	-17.424402	79.327154	-485.522157	-17.419186	79.322090	-84.820520	
1752	8.7600	651.867593	1413.281862	-119.776615	637.412604	1414.040698	-421.579431	644.631044	1471.534731	-271.172734	617.555132	1327.244272	-276.846045	569.385564	1135.026826	22.264214	698.475335	911.982238	-108.250989	569.674763	1159.635873	-558.577047	694.397273	905.217121	-481.127627	77.289205	1245.692116	-261.328611	231.824219	1253.934854	-421.196668	236.969373	1227.286818	-99.586211	265.038757	1196.944677	-380.658178	272.160982	1171.615354	-148.671214	113.580590	1282.732096	-216.361936	108.144311	1292.391223	-289.227050	174.394472	1167.172096	-95.056283	186.234660	1176.303731	-457.642397	222.355060	1013.103682	-70.392890	258.922213	933.531104	-82.791074	253.502158	848.760670	-92.576709	292.215409	942.563327	-96.886976	277.681538	704.546920	-121.224891	254.623320	687.246773	-232.956945	229.854540	584.148379	-96.642794	226.928092	494.364240	-113.335032	178.976212	423.285583	-121.554708	258.743012	489.585738	-136.165055	145.182930	275.571926	-132.368626	168.305048	280.893177	-214.583350	78.910941	276.148582	-169.808325	344.807715	130.405569	-165.243778	275.493291	140.273547	-109.039291	245.409480	1116.779678	-471.656235	327.335379	1091.576187	-483.369185	347.769144	1119.144712	-468.895912	386.933261	1027.077863	-499.028398	500.924777	915.403383	-490.787718	536.360990	888.513425	-381.993917	437.236828	821.807048	-507.966192	391.719055	752.222748	-480.163600	313.725003	709.774497	-472.007233	412.902377	737.465641	-451.216501	202.434447	619.922845	-454.179777	201.558779	627.885643	-366.084182	120.957280	642.447669	-408.767252	370.249090	471.547960	-416.186348	290.834063	478.908300	-478.026939	-185.622458	935.104335	-286.311906	-17.432368	79.330858	-485.507011	-17.427279	79.351400	-84.840650	
1753	8.7650	650.275374	1413.330732	-119.654793	635.944757	1414.253634	-421.393453	643.058728	1471.727507	-271.106780	616.151189	1327.359460	-276.721679	568.921478	1134.903835	22.286683	698.438079	912.013843	-108.206216	569.113882	1159.631284	-558.235524	694.378229	905.275624	-481.134413	75.856844	1245.369806	-261.395781	230.506507	1253.833347	-421.210780	235.557788	1227.062007	-99.674319	263.644233	1196.872299	-380.712187	270.770330	1171.540785	-148.651752	112.107621	1282.438557	-216.313305	106.684802	1292.071735	-289.183629	172.959371	1167.002951	-95.089475	184.849104	1176.257873	-457.657606	221.003760	1012.908197	-70.492551	257.673384	933.365352	-82.890004	252.364119	848.599847	-92.804636	290.995762	942.472071	-96.896794	276.814181	704.512505	-121.415973	253.491620	687.257529	-233.170430	229.121343	584.018964	-96.836077	226.226820	494.242934	-113.538027	178.278637	423.140747	-121.700766	257.930876	489.469130	-136.395609	144.585128	275.401261	-132.403694	167.674691	280.729072	-214.668675	78.311339	275.893539	-169.833967	344.499215	130.599066	-165.209522	275.172690	140.417616	-109.032773	244.103688	1116.933460	-471.776950	326.135946	1091.972558	-483.450660	346.432833	1119.567762	-469.027176	385.872225	1027.699924	-499.293880	500.244411	916.227478	-491.184975	535.805840	889.488246	-382.484754	436.776381	822.617412	-508.285685	391.444601	752.811762	-480.440209	313.595507	710.194358	-472.226279	412.790829	738.135964	-451.588246	202.613427	619.898972	-454.189524	201.727405	627.880172	-366.064283	121.148876	642.387483	-408.753955	370.507670	471.580983	-416.190682	291.108947	478.896898	-478.019221	-185.625195	935.093056	-286.292744	-17.418701	79.346437	-485.516141	-17.425265	79.349789	-84.836787	
1754	8.7700	648.705861	1413.503394	-119.541127	634.485208	1414.435944	-421.261171	641.468908	1471.923303	-270.942811	614.724988	1327.596643	-276.593892	568.382039	1134.686941	22.252000	698.423509	912.025847	-108.139262	568.610616	1159.645481	-557.940651	694.388813	905.345262	-481.134648	74.411429	1245.047490	-261.353958	229.134287	1253.743708	-421.286772	234.050840	1226.917222	-99.693316	262.310867	1196.869173	-380.799946	269.347312	1171.393105	-148.732090	110.684524	1282.138201	-216.409316	105.232878	1291.778005	-289.167553	171.517239	1166.824579	-95.173655	183.475236	1176.208138	-457.780219	219.600848	1012.856118	-70.589622	256.372560	933.262879	-83.136113	251.202369	848.441241	-93.021895	289.662849	942.377144	-97.162830	275.971280	704.456977	-121.675117	252.532789	687.203269	-233.289087	228.502445	583.915466	-96.976265	225.668505	494.175431	-113.642918	177.754283	422.998330	-121.800556	257.400204	489.387871	-136.504497	144.177388	275.264206	-132.488137	167.253351	280.588730	-214.747894	77.881538	275.602867	-169.872180	344.317672	130.873548	-165.195311	274.995540	140.522586	-109.038156	242.828588	1117.090535	-471.824782	324.855701	1092.382085	-483.616432	345.110993	1120.051029	-469.137443	384.782383	1028.245064	-499.542340	499.452564	917.041668	-491.519612	535.116707	890.136759	-382.903649	436.202868	823.343123	-508.591281	391.122626	753.427849	-480.810068	313.362195	710.619010	-472.429477	412.508962	738.675845	-451.946939	202.660330	619.866760	-454.224978	201.762351	627.898452	-366.075694	121.194001	642.339986	-408.759382	370.625745	471.632448	-416.187490	291.232157	478.908997	-478.031867	-185.624381	935.099183	-286.309246	-17.426179	79.352776	-485.514509	-17.424711	79.345935	-84.833424	
1755	8.7750	647.129630	1413.594039	-119.380778	632.949946	1414.605061	-421.120559	639.860636	1472.020550	-270.763454	613.294505	1327.791492	-276.436802	567.825354	1134.494610	22.228465	698.428769	912.029123	-108.076813	568.086522	1159.670704	-557.724944	694.424921	905.435201	-481.164059	72.960427	1244.845069	-261.429098	227.839938	1253.622281	-421.284238	232.553475	1226.767088	-99.774499	260.944247	1196.815233	-380.780553	267.886558	1171.188783	-148.748560	107.880586	1282.912248	-214.994353	104.325118	1291.716500	-289.576954	170.080731	1166.686572	-95.288235	182.152082	1176.165035	-457.908903	218.164965	1012.677147	-70.832726	255.114022	933.164680	-83.382133	250.164188	848.353778	-93.172495	288.362992	942.411785	-97.374810	275.298559	704.464885	-121.873368	251.735460	687.189842	-233.444269	227.880439	583.879072	-97.109901	225.166888	494.113338	-113.735743	177.357934	422.887259	-121.874865	256.949841	489.356078	-136.645479	143.972015	275.129119	-132.539584	166.974325	280.455629	-214.785466	77.619722	275.340336	-169.887322	344.328421	131.085129	-165.204243	274.970248	140.624298	-109.045214	241.591635	1117.448669	-472.100178	323.706887	1092.741072	-483.691112	343.848234	1120.386623	-469.190500	383.717504	1028.797905	-499.780860	498.665352	917.688217	-491.870859	534.439886	890.948346	-383.300599	435.560222	823.968001	-508.897125	390.710561	754.026793	-481.138296	312.977613	711.050278	-472.653588	412.169475	739.228516	-452.280351	202.562538	619.860804	-454.264123	201.637773	627.929013	-366.104371	121.099634	642.313002	-408.769034	370.602027	471.663946	-416.205441	291.191145	478.916179	-478.022022	-185.625733	935.106188	-286.292018	-17.431911	79.354746	-485.509298	-17.423130	79.348097	-84.817217	
